<svg class="mx-auto" width="67" height="66" xmlns="http://www.w3.org/2000/svg"><g fill="#6F2396" fill-rule="evenodd"><path d="M23.61 7.008c.036.062.059.135.107.185.68.718 1.366 1.432 2.048 2.15.972 1.026 1.94 2.058 2.915 3.082.794.834 1.594 1.661 2.391 2.491.498.518 1.009 1.023 1.486 1.56.243.274.535.5.763.783.451.556.964 1.053 1.449 1.577.858.928 1.747 1.827 2.619 2.742.476.5.943 1.007 1.417 1.507 1.096 1.158 2.194 2.314 3.292 3.471l3.157 3.323 3.154 3.33c.999 1.053 1.999 2.105 2.998 3.16a10513.65 10513.65 0 016.329 6.673c1.091 1.15 2.184 2.297 3.272 3.45.174.184.326.387.488.582l-.036.037c-.278-.265-.562-.525-.834-.796-1.785-1.783-3.567-3.57-5.352-5.354l-5.232-5.233-5.173-5.172-5.394-5.392-5.193-5.192-5.213-5.212c-1.67-1.672-3.339-3.344-5.01-5.015-.773-.772-1.547-1.543-2.322-2.313-.052-.052-.117-.09-.176-.136l-.114-.114a.192.192 0 01-.017-.013.186.186 0 00.02.01l.114.114c.142.161.283.325.428.484.421.458.838.921 1.268 1.37.907.948 1.826 1.885 2.732 2.833 1.103 1.153 2.197 2.314 3.295 3.47 1.066 1.122 2.132 2.243 3.196 3.365l3.117 3.288 3.198 3.366c1.092 1.15 2.182 2.3 3.273 3.447.532.56 1.071 1.112 1.6 1.674.823.872 1.638 1.752 2.462 2.622.733.776 1.476 1.541 2.213 2.314 1.099 1.156 2.195 2.314 3.294 3.47 1.064 1.122 2.132 2.242 3.195 3.365.875.925 1.743 1.856 2.619 2.78.682.717 1.375 1.424 2.057 2.141.703.74 1.399 1.485 2.097 2.23.022.023.027.064.04.096-.031-.016-.066-.027-.089-.05-.388-.376-.776-.75-1.158-1.13a328.113 328.113 0 01-1.859-1.873c-.384-.389-.76-.786-1.146-1.172-.468-.468-.948-.924-1.415-1.392-3.386-3.383-6.77-6.767-10.154-10.15L35.151 23.165c-3.55-3.55-7.101-7.103-10.653-10.653-.762-.763-1.531-1.519-2.294-2.28-.763-.76-1.521-1.526-2.282-2.29l-.079-.075c.012.04.015.091.042.118.263.27.538.528.795.803.424.455.834.923 1.255 1.381.095.103.219.18.317.283 1.212 1.27 2.422 2.541 3.631 3.812l3.177 3.343 3.294 3.47c.493.517.988 1.033 1.479 1.553.803.852 1.599 1.71 2.404 2.558.832.876 1.674 1.743 2.507 2.618 1.12 1.174 2.236 2.352 3.355 3.527.487.513.974 1.023 1.46 1.536.796.845 1.589 1.694 2.389 2.536.852.896 1.711 1.785 2.565 2.68 1.099 1.155 2.196 2.312 3.294 3.47 1.059 1.114 2.122 2.227 3.178 3.345.44.465.865.945 1.305 1.408.618.65 1.248 1.29 1.868 1.937.691.722 1.377 1.45 2.062 2.177.07.074.118.17.176.255h.001c-.098-.07-.208-.127-.292-.21-.979-.976-1.955-1.956-2.932-2.933l-6.925-6.922-20.349-20.352c-3.402-3.402-6.804-6.803-10.209-10.202-.083-.083-.194-.137-.292-.204l-.055-.115-.115-.056-.056-.114-.018-.013a.2.2 0 01.021.01l.056.115.115.055.055.115c.383.402.768.803 1.149 1.207.707.748 1.41 1.5 2.119 2.247.753.793 1.511 1.581 2.265 2.373l3.687 3.875c1.197 1.257 2.396 2.513 3.592 3.771l3.137 3.3 3.333 3.51 3.337 3.504 3.313 3.487c1.038 1.094 2.076 2.19 3.115 3.283l3.372 3.546 3.16 3.322c1.157 1.217 2.315 2.431 3.468 3.651.174.184.324.39.487.584l-.032.032c-.272-.258-.551-.509-.817-.774-.715-.71-1.424-1.427-2.137-2.14l-5.555-5.556-5.536-5.535-5.555-5.555-5.355-5.356-5.395-5.396-5.514-5.516c-1.745-1.745-3.491-3.49-5.238-5.234-.085-.084-.185-.154-.279-.23l-.057-.057-.027-.06c-.001.007-.007.017-.004.02a.241.241 0 00.035.037c.018.02.038.038.057.057.083.102.16.21.25.305 1.184 1.245 2.368 2.49 3.554 3.731.847.886 1.7 1.766 2.547 2.652 1.087 1.14 2.171 2.282 3.255 3.424 1.11 1.17 2.218 2.343 3.328 3.513.539.57 1.081 1.137 1.622 1.705l3.374 3.548c1.039 1.093 2.077 2.188 3.117 3.281l3.513 3.69c.526.551 1.057 1.1 1.581 1.653.876.925 1.745 1.855 2.621 2.78.747.788 1.5 1.57 2.249 2.357l3.415 3.587c.493.518.992 1.031 1.483 1.552.394.42.771.852 1.168 1.268.714.75 1.44 1.49 2.157 2.238.523.545 1.04 1.097 1.557 1.65.042.043.061.11.09.166l-.002.002c-.37-.35-.748-.694-1.11-1.053a508.561 508.561 0 01-2.646-2.65c-.453-.456-.898-.92-1.353-1.375-5.6-5.59-11.203-11.179-16.8-16.772-5.437-5.433-10.869-10.872-16.303-16.308-1.476-1.478-2.955-2.953-4.432-4.429l-.017-.013.019.01c.036.063.061.135.11.186.957 1.004 1.919 2.004 2.877 3.007 1.133 1.188 2.264 2.378 3.396 3.567 1.039 1.094 2.077 2.19 3.117 3.282 1.176 1.237 2.355 2.473 3.533 3.71l3.138 3.301 3.512 3.691c1.054 1.106 2.106 2.214 3.159 3.321l3.472 3.651 1.559 1.636c.046.048.08.106.129.15.126.112.125.217-.002.328-.018.016-.018.052-.026.08-.072.073-.069.16-.009.228.085.096.187.178.284.263.009.008.034-.002.051-.004-.011-.02-.018-.046-.036-.059-.141-.115-.267-.238-.293-.43.226-.153.281-.148.433.014.289.31.582.613.873.92l3.552 3.73c.539.564 1.082 1.126 1.618 1.695.796.845 1.581 1.7 2.381 2.541.838.882 1.69 1.75 2.531 2.63.755.79 1.502 1.587 2.251 2.384.051.054.081.126.121.19l.003-.003c-.202-.18-.413-.354-.605-.545a1630.546 1630.546 0 01-3.481-3.478l-7.149-7.162-2.219-2.22-5.102-5.096-5.359-5.359c-1.733-1.733-3.468-3.464-5.201-5.198-1.846-1.846-3.69-3.695-5.535-5.542l-5.919-5.919c-.34-.34-.679-.68-1.022-1.018-.038-.038-.094-.057-.142-.085-.016-.098-.072-.156-.172-.168l-.058-.113-.115-.056a5.93 5.93 0 00-.055-.114l-.115-.057-.056-.114-.115-.056-.055-.115-.116-.055-.054-.115a11.873 11.873 0 00-.116-.056l-.055-.115-.116-.056-.025-.055c-.002.006-.008.016-.006.02l.034.033.116.055c.018.04.037.077.055.115l.115.056.055.115c.039.02.077.037.115.055l.056.116.115.055.056.115c.038.02.076.037.114.055l.057.115.114.056.055.115c.013.101.069.158.169.173.037.062.064.133.113.184.892.936 1.787 1.868 2.679 2.804 1.193 1.25 2.384 2.5 3.575 3.751 1.054 1.107 2.105 2.216 3.159 3.324l3.494 3.671 3.158 3.323 3.494 3.67 3.158 3.324c1.105 1.162 2.21 2.324 3.313 3.487.208.22.41.444.618.662.1.106.14.245.258.35.777.686 1.466 1.461 2.182 2.21 1.206 1.261 2.409 2.527 3.614 3.791.566.593 1.133 1.185 1.697 1.78.149.157.291.321.435.483.012.012.016.03.023.046-.026-.002-.058.006-.074-.007a3.26 3.26 0 01-.231-.208c-2.426-2.426-4.858-4.847-7.269-7.288-.227-.23-.522-.415-.665-.729-.506-.256-.824-.722-1.212-1.106-2.258-2.239-4.506-4.49-6.757-6.74-3.92-3.919-7.84-7.839-11.763-11.758-4.12-4.116-8.243-8.23-12.365-12.346-.265-.265-.274-.275.001-.526.688-.63 1.369-1.272 2.085-1.869a30.234 30.234 0 012.026-1.539 33.207 33.207 0 012.023-1.285 37.175 37.175 0 011.972-1.096c.551-.285 1.12-.532 1.687-.785.464-.206.934-.4 1.406-.59.322-.129.65-.248.98-.358.527-.176 1.051-.357 1.585-.506.571-.159 1.15-.287 1.726-.423.429-.1.857-.207 1.291-.287.48-.089.97-.134 1.449-.23.493-.1.995-.108 1.488-.18C31.12.007 32.13.006 33.142.001a58.871 58.871 0 011.733.012c.454.01.913.007 1.359.076.505.078 1.013.108 1.519.165.364.041.727.101 1.087.168.582.108 1.165.213 1.741.346.659.153 1.316.317 1.964.508.594.175 1.18.378 1.76.593.784.29 1.573.575 2.338.912.774.341 1.523.74 2.281 1.118 1.029.516 2.004 1.125 2.949 1.78.666.46 1.3.966 1.95 1.45.859.635 1.624 1.38 2.418 2.09.444.394.751.892 1.101 1.36.378.504.737 1.022 1.106 1.534l1.457 2.015c.316.435.636.866.95 1.303.5.694.998 1.392 1.498 2.088.115.161.236.317.352.477.013.02.011.048.017.073-.026-.005-.059-.002-.075-.017a13.667 13.667 0 01-.391-.37l-4.711-4.714c-2.6-2.6-5.198-5.202-7.799-7.8-.098-.098-.217-.174-.325-.26l-.056-.115-.015-.009.017.007.057.114c.234.271.468.542.703.811l2.684 3.062c.801.914 1.603 1.827 2.401 2.744.594.681 1.177 1.372 1.771 2.052.596.681 1.204 1.352 1.801 2.031.803.913 1.603 1.83 2.403 2.744l2.381 2.723c.236.27.472.538.703.811.046.055.07.13.104.195l.003-.003c-.223-.2-.454-.392-.666-.603A6546.972 6546.972 0 0156.74 14.5c-.345-.346-.673-.71-1.019-1.054-2.275-2.266-4.554-4.529-6.829-6.794-.815-.81-1.623-1.627-2.437-2.438-.044-.044-.106-.07-.16-.104-.014-.102-.069-.159-.173-.169-.017-.038-.036-.076-.055-.114a6.066 6.066 0 00-.115-.056l-.055-.115-.116-.056a1.373 1.373 0 00-.025-.056c-.002.007-.008.016-.005.02.01.012.022.022.033.034l.115.055.056.115.114.055.057.115.169.171c.06.092.109.194.182.274.484.541.972 1.078 1.461 1.615.679.746 1.363 1.488 2.038 2.237.619.686 1.227 1.382 1.844 2.07.365.407.739.807 1.105 1.213.467.52.926 1.044 1.394 1.561.418.462.849.913 1.266 1.376.85.946 1.69 1.898 2.539 2.845.768.857 1.539 1.71 2.311 2.563.658.726 1.323 1.447 1.979 2.175.611.68 1.216 1.367 1.824 2.05.245.275.496.544.742.82.041.046.062.111.092.168l-.023.024c-.207-.189-.421-.372-.619-.57-3.172-3.17-6.341-6.342-9.51-9.513-2.938-2.939-5.872-5.879-8.81-8.817-.952-.953-1.909-1.9-2.865-2.85-.037-.038-.09-.062-.136-.09l-.057-.059-.026-.06c-.002.006-.007.016-.004.02.009.013.022.024.033.037l.057.057c.173.2.34.404.519.598.686.752 1.378 1.5 2.066 2.25.6.653 1.198 1.307 1.796 1.96.65.71 1.299 1.42 1.949 2.128.871.951 1.748 1.9 2.615 2.854.684.755 1.358 1.521 2.036 2.282.044.05.086.1.132.148.842.904 1.689 1.803 2.529 2.71.889.962 1.77 1.93 2.655 2.895.624.681 1.246 1.364 1.872 2.043.391.423.794.834 1.181 1.26.379.418.738.854 1.116 1.272.683.756 1.372 1.506 2.057 2.26.047.052.07.127.104.191l.003-.004c-.37-.35-.747-.693-1.107-1.054-3.504-3.5-7.004-7.005-10.506-10.508-4.53-4.53-9.062-9.062-13.594-13.59-.097-.099-.217-.174-.326-.26l-.056-.114-.016-.01.019.007.056.115 1.437 1.56c.973 1.055 1.945 2.11 2.918 3.163.481.52.964 1.036 1.444 1.556.888.963 1.772 1.93 2.663 2.891.884.954 1.777 1.9 2.66 2.854.436.472.849.965 1.282 1.44.285.312.595.603.884.914.425.456.838.923 1.261 1.381.563.61 1.133 1.214 1.695 1.823.8.868 1.592 1.742 2.396 2.605.648.697 1.312 1.38 1.962 2.076.29.31.558.636.841.95.107.117.237.215.343.333.341.378.667.77 1.013 1.142.934 1.011 1.878 2.014 2.813 3.023.114.123.201.27.301.404-.129-.107-.267-.205-.385-.324-1.257-1.259-2.508-2.525-3.767-3.78-.394-.393-.84-.737-1.211-1.149-1.238-1.37-2.589-2.626-3.884-3.939-1.217-1.233-2.449-2.45-3.674-3.675l-6.168-6.168-3.632-3.634-5.682-5.695c-.027-.027-.058-.049-.088-.07-.025-.018-.051-.03-.076-.046.012.024.019.053.037.072.11.118.224.23.333.348.635.684 1.266 1.37 1.902 2.053.63.677 1.263 1.351 1.896 2.026.536.571 1.078 1.137 1.61 1.713.819.885 1.628 1.78 2.45 2.663.938 1.008 1.886 2.006 2.826 3.011a468.7 468.7 0 012.254 2.426c.248.27.475.56.725.827.448.482.911.95 1.359 1.431.585.628 1.156 1.27 1.741 1.897.965 1.035 1.936 2.064 2.903 3.096.761.812 1.526 1.622 2.283 2.44.924.995 1.837 2.002 2.762 2.997.989 1.065 1.987 2.121 2.975 3.186.117.126.282.23.297.43l.001-.002c-.155-.133-.321-.256-.465-.4-3.241-3.238-6.48-6.479-9.719-9.718l-4.259-4.259L40.638 7.716a2986.387 2986.387 0 00-4.361-4.358c-.044-.044-.107-.067-.161-.1l-.057-.057-.026-.062c-.003.006-.009.017-.007.02.01.014.024.026.036.04.018.02.038.038.057.057.219.246.434.497.657.738a1175.58 1175.58 0 003.22 3.46c.631.675 1.275 1.34 1.904 2.016.963 1.034 1.917 2.077 2.881 3.11.617.663 1.246 1.313 1.866 1.972.854.907 1.706 1.817 2.554 2.728.432.463.85.938 1.282 1.4.78.831 1.569 1.653 2.348 2.485.613.654 1.214 1.318 1.826 1.973.631.676 1.271 1.344 1.904 2.018.813.866 1.624 1.735 2.435 2.604.766.82 1.533 1.638 2.297 2.46.975 1.05 1.945 2.102 2.921 3.151.552.594 1.11 1.182 1.662 1.776.08.086.137.195.204.294l.003-.004c-.423-.404-.854-.8-1.269-1.215-4.867-4.865-9.731-9.734-14.597-14.6A82307.319 82307.319 0 0034.032 3.44c-.091-.09-.203-.159-.304-.238a6.066 6.066 0 01-.056-.115l-.115-.055-.056-.115a.086.086 0 00-.016-.01l.018.007.057.115c.038.02.076.037.115.055l.055.115.617.66c.799.854 1.595 1.71 2.396 2.563.633.675 1.272 1.343 1.906 2.017.86.914 1.717 1.83 2.576 2.745l2.555 2.726 2.555 2.725c.792.847 1.581 1.698 2.375 2.545.896.956 1.799 1.907 2.697 2.862.878.934 1.753 1.871 2.63 2.806l2.496 2.66 2.629 2.805 2.654 2.824c.878.935 1.756 1.871 2.631 2.81.109.115.196.251.293.377a2.04 2.04 0 01-.047.045c-.271-.257-.549-.51-.814-.774-1.791-1.79-3.578-3.583-5.367-5.374-1.743-1.745-3.489-3.487-5.232-5.23-1.444-1.445-2.889-2.888-4.334-4.332l-4.874-4.874-4.513-4.51c-1.619-1.617-3.236-3.235-4.853-4.852-1.091-1.092-2.18-2.186-3.27-3.278-.026-.026-.064-.039-.096-.057l-.017-.01.02.007c.188.21.374.423.566.63.851.908 1.701 1.817 2.555 2.723 1.118 1.188 2.24 2.374 3.359 3.561l2.693 2.862 2.753 2.925c.905.962 1.811 1.923 2.713 2.887.38.406.747.825 1.127 1.23.479.51.972 1.005 1.451 1.513 1.054 1.12 2.102 2.246 3.155 3.367.697.742 1.401 1.48 2.098 2.221 1.135 1.21 2.265 2.423 3.401 3.63.725.77 1.457 1.531 2.183 2.3.946 1 1.887 2.004 2.832 3.007l2.638 2.802c.155.165.31.331.457.503.039.045.05.116.074.174l.002-.002c-.955-.944-1.915-1.884-2.865-2.834-3.22-3.215-6.434-6.433-9.652-9.65l-5.359-5.355L34.083 8.14c-1.204-1.206-2.406-2.41-3.611-3.614-.067-.067-.141-.125-.212-.186l-.058-.058-.113-.113-.058-.057-.113-.113a1.586 1.586 0 00-.058-.058l-.112-.113-.058-.058-.113-.112a12.2 12.2 0 01-.171-.171l-.013-.013.016.01.113.113.058.058.113.112c.019.02.038.04.058.058l.112.113.058.057.113.114.058.057.113.113.057.058c.118.156.222.324.355.465.802.852 1.611 1.698 2.416 2.547.935.984 1.869 1.968 2.802 2.954.48.508.955 1.022 1.435 1.531.924.983 1.849 1.965 2.775 2.947.944 1.001 1.891 2.001 2.834 3.002.933.99 1.865 1.977 2.794 2.97.391.417.767.848 1.16 1.265.48.508.972 1.004 1.453 1.511 1.013 1.068 2.023 2.14 3.033 3.21.933.986 1.865 1.973 2.795 2.961l2.835 3.008 2.794 2.962c.946 1.002 1.891 2.004 2.834 3.01.774.823 1.545 1.65 2.315 2.48.067.071.11.167.165.252l.003-.003c-.408-.395-.82-.784-1.221-1.185-2.892-2.888-5.781-5.777-8.671-8.666l-17.92-17.92-8.187-8.187a36.423 36.423 0 00-.627-.616c-.045-.043-.11-.065-.165-.097l-.056-.116a4.062 4.062 0 01-.115-.055l-.056-.113-.016-.012.019.01.055.112c.039.02.077.037.116.056l.056.116c.318.334.637.667.954 1.003.73.777 1.458 1.558 2.19 2.334.784.83 1.573 1.654 2.358 2.483 1.013 1.068 2.025 2.138 3.036 3.208l2.756 2.922c1.017 1.076 2.035 2.151 3.051 3.228.92.973 1.837 1.947 2.756 2.92l3.051 3.227L51.199 29l3.011 3.185c.938.995 1.879 1.987 2.817 2.981l2.993 3.17c.984 1.041 1.972 2.081 2.955 3.126.199.212.38.442.569.664l-.041.04c-.272-.257-.551-.509-.815-.774-1.791-1.79-3.577-3.583-5.366-5.373-2.082-2.083-4.166-4.163-6.25-6.245l-6.409-6.405-5.187-5.19-5.188-5.192-5.229-5.23c-.912-.912-1.823-1.824-2.735-2.734-.046-.046-.105-.077-.159-.115l-.112-.115-.059-.057-.026-.057c-.001.006-.005.015-.003.02a.53.53 0 00.032.034l.058.058.113.114c.108.13.21.264.326.385.775.813 1.556 1.62 2.327 2.434 1.52 1.604 3.034 3.212 4.551 4.818.958 1.015 1.917 2.03 2.876 3.043l3.095 3.27 3.054 3.225 2.916 3.085c1.012 1.07 2.026 2.138 3.038 3.207.978 1.034 1.953 2.072 2.934 3.104.591.622 1.198 1.228 1.786 1.852.588.625 1.156 1.27 1.742 1.894.834.886 1.681 1.761 2.519 2.644 1.014 1.068 2.024 2.14 3.036 3.208.446.472.897.941 1.342 1.414.665.708 1.328 1.42 1.992 2.13.019.02.04.04.056.064.013.018.018.041.028.062-.026-.006-.06-.003-.077-.019a23.68 23.68 0 01-.511-.49c-.493-.497-.982-.998-1.476-1.494a2466.662 2466.662 0 00-5.653-5.649c-.849-.848-1.696-1.7-2.549-2.545-.342-.338-.709-.649-1.047-.99-1.588-1.602-3.163-3.216-4.756-4.813-3.445-3.456-6.9-6.904-10.35-10.355-3.61-3.612-7.22-7.224-10.832-10.835-.728-.728-1.459-1.455-2.188-2.18-.024-.024-.054-.039-.081-.058.013.032.02.072.043.095.281.292.57.576.847.871.649.687 1.29 1.381 1.94 2.068.387.411.789.81 1.176 1.22.636.673 1.264 1.354 1.9 2.027.388.41.79.808 1.178 1.218.635.673 1.262 1.355 1.898 2.028.441.465.892.92 1.334 1.383.372.39.735.787 1.107 1.178 1.168 1.232 2.34 2.463 3.51 3.695.96 1.013 1.917 2.03 2.877 3.043 1.084 1.144 2.17 2.285 3.253 3.43.96 1.012 1.918 2.027 2.877 3.041.882.932 1.761 1.866 2.646 2.794.338.355.702.69 1.038 1.047.625.666 1.231 1.35 1.858 2.015 1.282 1.36 2.574 2.71 3.861 4.064 1 1.053 2 2.107 2.996 3.163.809.858 1.612 1.721 2.417 2.583.038.041.068.09.102.135l.003-.003c-.105-.075-.221-.139-.311-.228a6297.484 6297.484 0 01-5.784-5.775l-5.177-5.179c-2.936-2.936-5.874-5.87-8.809-8.807-2.81-2.809-5.618-5.62-8.428-8.428-.221-.22-.458-.424-.675-.648-.28-.289-.53-.607-.822-.882-1.465-1.382-2.852-2.84-4.284-4.256-1.412-1.398-2.811-2.808-4.217-4.21-.334-.334-.675-.659-1.013-.987l-.115-.057-.055-.113-.019-.012.021.01c.019.037.038.074.055.113l.116.056zM41.977 42.994l-.084-.104c-.025-.03-.048-.065-.072-.097.003.043-.005.092.013.13.017.037.057.067.091.096.01.008.032.002.047 0 .003 0 .003-.014.005-.025zm-1.482.247c-.019.177.07.258.23.303.137.038.267.1.401.152-.119-.072-.245-.133-.356-.217-.084-.065-.15-.154-.217-.238-.022-.026-.022-.069-.03-.105l-.028.105zm-25.87-10.018l-.053-.016c.018.004.036.01.054.013.052.064.1.133.158.192.058.06.124.11.186.165-.046-.075-.083-.16-.143-.223-.055-.056-.135-.088-.203-.13zm27.293 9.151c.018.02.038.04.057.058l.114.113c.018.02.038.038.057.057.035.06.072.118.108.177a.442.442 0 01.035-.025l-.146-.149-.057-.057c-.038-.038-.075-.076-.114-.113l-.057-.058c-.01-.01-.022-.023-.033-.032-.003-.002-.013.002-.019.004l.055.025zm-1.706.967c.02.02.04.038.057.057l.454.568.015.017-.018-.013c-.067-.257-.23-.436-.454-.569l-.057-.057-.057-.057-.013-.017.016.014.057.057zM9.165 11.105c.208.188.425.368.623.566 1.327 1.325 2.647 2.657 3.975 3.981.49.486 1.001.947 1.487 1.436 2.566 2.576 5.125 5.161 7.692 7.737 2.96 2.97 5.926 5.934 8.892 8.897.38.38.787.734 1.167 1.116 2.524 2.538 5.045 5.08 7.566 7.621.097.098.18.211.268.316l.003-.002a5.09 5.09 0 00-.122-.016c.017.03.032.062.054.087.018.02.045.031.068.046l-.004-.004.061.061-.003-.004.23.284c.018.02.038.038.057.058l.177.234.021-.014-.2-.218a3.145 3.145 0 01-.058-.057c-.008-.037-.02-.074-.023-.112 0-.025.008-.05.013-.077.024.01.052.013.071.03.044.034.085.074.125.114 1.5 1.5 2.997 3.002 4.497 4.502 1.24 1.24 2.483 2.475 3.723 3.714.42.42.833.843 1.252 1.262.03.031.082.041.124.061.013.101.07.16.172.17.02.037.037.076.056.114l.115.055c.018.04.036.077.055.115.038.02.077.038.115.056l.056.115.115.056.054.114.117.056c.017.04.036.077.054.115.038.02.077.037.116.056l.055.115.114.056.014.015a.101.101 0 01-.016-.013l-.115-.055-.055-.116-.115-.055-.056-.116-.115-.055-.055-.115-.115-.055-.056-.115-.114-.056c-.02-.038-.038-.076-.057-.115a5.93 5.93 0 01-.114-.055c-.019-.039-.037-.077-.057-.115-.013-.1-.066-.16-.169-.17-.178-.217-.344-.445-.536-.648-.98-1.032-1.968-2.06-2.954-3.087-.424-.44-.857-.874-1.279-1.317-.859-.904-1.708-1.815-2.568-2.717-.898-.943-1.806-1.877-2.706-2.819a1512.61 1512.61 0 01-3.494-3.668c-1.014-1.066-2.024-2.134-3.039-3.199-.163-.17-.345-.324-.509-.495-.095-.1-.174-.218-.259-.327-.023-.03-.04-.067-.068-.092-.764-.688-1.427-1.474-2.14-2.21a707.023 707.023 0 01-2.549-2.652c-1.14-1.194-2.277-2.39-3.415-3.587l-3.436-3.606-3.416-3.586c-.74-.78-1.479-1.565-2.218-2.349-.058-.062-.102-.135-.154-.204l-.003.003c.086.055.184.097.254.167a5702.83 5702.83 0 016.52 6.492l6.408 6.391 3.461 3.457c1.258 1.26 2.514 2.521 3.774 3.78 1.671 1.672 3.347 3.34 5.013 5.017.291.292.537.628.813.936.064.071.1.231.258.14l-.003.002c.583.576 1.168 1.15 1.748 1.728 1.86 1.854 3.716 3.711 5.572 5.567.64.64 1.274 1.283 1.912 1.921l4.218 4.206c.094.093.177.196.276.283.113.098.113.172.002.277-.268.251-.512.528-.788.77-.523.462-1.055.914-1.596 1.355-.7.571-1.436 1.094-2.179 1.61a33.506 33.506 0 01-2.892 1.762c-.625.345-1.277.641-1.927.94a55.87 55.87 0 01-1.813.78c-.295.123-.595.236-.898.335-.59.194-1.18.388-1.777.558a29.76 29.76 0 01-1.558.386c-.53.121-1.066.23-1.6.337-.44.09-.884.175-1.327.255-.11.021-.227.011-.34.026-.974.128-1.949.24-2.935.238-.415 0-.829.071-1.244.076-.435.004-.87-.033-1.304-.054-.132-.006-.264-.022-.396-.028-.577-.028-1.154-.039-1.729-.083-.479-.038-.956-.1-1.43-.175a38.865 38.865 0 01-1.89-.335c-.57-.119-1.13-.274-1.694-.417-.227-.057-.453-.123-.68-.182a21.978 21.978 0 01-2.574-.84c-.454-.182-.915-.346-1.364-.539-.44-.189-.873-.403-1.307-.61-.524-.254-1.052-.503-1.568-.773a20.067 20.067 0 01-1.25-.716 32.041 32.041 0 01-1.465-.959 55.478 55.478 0 01-1.893-1.382 27.833 27.833 0 01-2.719-2.393c-.277-.276-.5-.61-.736-.928-.41-.553-.81-1.112-1.21-1.67-.423-.589-.839-1.183-1.263-1.77-.409-.566-.826-1.124-1.237-1.688-.494-.678-.986-1.356-1.473-2.039-.123-.173-.224-.362-.334-.544l-.003.003c.316.297.641.585.947.89 1.458 1.454 2.91 2.913 4.366 4.37l7.771 7.77c.073.072.148.143.223.215l.016.01-.018-.007c-.072-.107-.132-.223-.216-.319a303.504 303.504 0 00-1.604-1.826c-.324-.367-.652-.73-.974-1.1-.466-.53-.927-1.067-1.392-1.598-.298-.34-.6-.677-.896-1.019-.359-.413-.712-.829-1.07-1.243-.166-.193-.334-.382-.502-.573l-1.81-2.06c-.724-.823-1.447-1.642-2.167-2.465-.72-.822-1.434-1.65-2.153-2.472-.666-.758-1.338-1.51-2.005-2.267a1.794 1.794 0 01-.156-.203c-.016-.025-.014-.063-.02-.094.033.013.076.017.1.041.467.465.932.933 1.4 1.4l5.557 5.558 5.521 5.52 5.298 5.296c.044.045.106.071.16.105.014.102.072.157.173.168.018.04.037.077.056.115.038.02.077.037.115.056l.055.115c.038.02.077.037.116.056a.668.668 0 00.025.055c.002-.006.008-.016.005-.019-.01-.012-.023-.023-.034-.034l-.115-.055-.055-.115a4.062 4.062 0 00-.115-.055l-.056-.116a27.09 27.09 0 00-.169-.17c-.072-.108-.133-.224-.218-.319-.458-.514-.92-1.024-1.384-1.534-.393-.433-.79-.863-1.18-1.297-.658-.729-1.312-1.459-1.968-2.187-.372-.414-.749-.824-1.119-1.239-.679-.759-1.35-1.523-2.032-2.28-.39-.434-.797-.853-1.19-1.286-.613-.678-1.219-1.363-1.83-2.043-.643-.714-1.289-1.425-1.933-2.139-.429-.477-.855-.956-1.284-1.433-.738-.819-1.477-1.638-2.217-2.455-.703-.777-1.408-1.55-2.107-2.33-.117-.132-.21-.284-.314-.426l.021-.023c.207.19.422.371.62.57 3.097 3.098 6.192 6.2 9.288 9.298.473.473.95.941 1.423 1.414l8.808 8.817c.552.553 1.11 1.102 1.666 1.652.038.037.09.061.136.09l.056.058c.01.02.02.04.028.061.001-.007.007-.017.004-.02-.009-.014-.022-.026-.035-.038l-.056-.058c-.064-.082-.122-.168-.192-.244-.49-.535-.985-1.066-1.475-1.602-.452-.495-.896-.997-1.348-1.49a1930.35 1930.35 0 00-3.348-3.653c-.854-.93-1.715-1.854-2.567-2.786-.293-.32-.567-.658-.859-.978-.52-.57-1.05-1.133-1.574-1.7-.767-.833-1.536-1.665-2.3-2.5-.516-.563-1.026-1.13-1.54-1.696-.743-.816-1.485-1.633-2.23-2.447-.217-.236-.452-.455-.666-.692-.327-.362-.645-.734-.966-1.102-.018-.02-.033-.05-.057-.062-.214-.118-.335-.32-.487-.502-.319-.383-.672-.74-1.008-1.11a492.15 492.15 0 01-1.942-2.138c-.035-.038-.046-.098-.068-.148l-.003.003c.41.392.823.78 1.225 1.178a810.188 810.188 0 013.48 3.458c2.303 2.306 4.603 4.618 6.908 6.925 3.333 3.337 6.67 6.671 10.004 10.007 1.21 1.21 2.42 2.42 3.631 3.626.084.084.19.146.285.218l.056.115.016.01-.019-.007-.056-.115c-.492-.534-.98-1.07-1.478-1.6-.593-.632-1.202-1.25-1.79-1.888-.914-.992-1.814-1.996-2.723-2.99-.675-.739-1.359-1.47-2.035-2.206-.829-.902-1.655-1.807-2.485-2.707-.557-.603-1.123-1.199-1.68-1.8-.72-.774-1.436-1.55-2.153-2.326l-1.995-2.163c-.697-.756-1.395-1.51-2.094-2.266L6.022 41.08 3.93 38.812c-.67-.728-1.342-1.456-2.015-2.183-.359-.387-.722-.77-1.08-1.157-.096-.104-.182-.216-.269-.327-.016-.02-.017-.05-.025-.078.027.013.06.021.081.041.198.188.397.376.59.57 2.357 2.366 4.713 4.735 7.072 7.1 1.986 1.992 3.98 3.978 5.967 5.968.453.453.898.913 1.351 1.366 1.546 1.54 3.095 3.078 4.641 4.618 1.013 1.01 2.02 2.024 3.035 3.032.133.132.312.223.432.364.354.414.801.736 1.151 1.15.83.978 1.792 1.826 2.68 2.748.234.244.486.471.731.706l.171.171.17.17.171.172c.012.015.02.031.034.044.071.07.145.14.217.208.006-.01.02-.028.018-.029a7.043 7.043 0 00-.218-.207c-.013-.01-.035-.009-.054-.013-.014-.1-.066-.162-.17-.172-.01-.103-.064-.163-.17-.17-.009-.106-.06-.166-.172-.17-.02-.209-.19-.319-.315-.453a266.819 266.819 0 00-1.998-2.124c-.479-.506-.97-1-1.443-1.512-.422-.457-.818-.939-1.242-1.395-.949-1.023-1.91-2.033-2.863-3.054a1252.165 1252.165 0 01-3.504-3.777c-.562-.609-1.112-1.23-1.677-1.837-.494-.532-1.005-1.049-1.5-1.58-.63-.676-1.252-1.36-1.88-2.038-1.326-1.422-2.654-2.84-3.979-4.262l-2.215-2.384-2.216-2.385c-.737-.795-1.476-1.588-2.215-2.382-.134-.145-.269-.29-.396-.44-.039-.047-.05-.117-.073-.175l-.003.002c.283.262.573.516.846.788 2.076 2.07 4.147 4.144 6.22 6.217l6.22 6.217c.532.534 1.061 1.071 1.595 1.604 3.118 3.12 6.235 6.238 9.354 9.354 1.734 1.733 3.47 3.463 5.206 5.192.112.11.237.205.356.306l.057.058.027.063c.002-.008.008-.018.006-.02-.01-.016-.024-.028-.036-.04l-.056-.058c-.24-.267-.475-.538-.719-.799-.9-.966-1.807-1.929-2.71-2.893-.767-.82-1.535-1.639-2.299-2.46-.975-1.05-1.946-2.105-2.923-3.154-.596-.64-1.203-1.275-1.803-1.914a746.086 746.086 0 01-2.594-2.768c-.34-.365-.663-.744-1.002-1.108-.419-.449-.85-.886-1.27-1.334-1.017-1.087-2.027-2.18-3.045-3.268-.689-.738-1.387-1.467-2.078-2.203-.8-.853-1.597-1.709-2.395-2.564-.799-.855-1.599-1.71-2.396-2.566-.95-1.02-1.897-2.045-2.847-3.066-.566-.607-1.134-1.212-1.7-1.82C.72 30.654.68 30.6.638 30.55l-.002.002c.104.076.22.14.311.23 2.17 2.162 4.34 4.328 6.507 6.495a212407.896 212407.896 0 0024.864 24.861c.221.22.448.434.672.65.038.02.077.037.115.057.02.038.037.076.056.113l.016.012-.019-.009-.056-.115-.115-.054c-.059-.092-.107-.194-.18-.272a578.224 578.224 0 00-2.729-2.908c-1.108-1.172-2.222-2.338-3.329-3.51-.862-.912-1.717-1.83-2.575-2.745l-2.536-2.707c-.858-.915-1.718-1.829-2.576-2.746-.38-.406-.753-.82-1.134-1.226-.9-.963-1.806-1.924-2.709-2.887l-2.575-2.744-2.553-2.724L7.538 35.6l-2.573-2.743a943.893 943.893 0 01-2.553-2.725c-.173-.185-.327-.387-.489-.58.014-.016.03-.03.046-.046.271.258.55.51.814.775a4600.74 4600.74 0 015.412 5.41c1.962 1.965 3.921 3.933 5.884 5.897 1.55 1.551 3.106 3.096 4.656 4.647 2.943 2.943 5.88 5.89 8.822 8.831 2.55 2.55 5.101 5.095 7.653 7.642.032.032.074.054.111.08l.018.01-.02-.007c-.14-.164-.277-.333-.426-.49-1.112-1.182-2.226-2.36-3.34-3.54-.886-.939-1.77-1.88-2.656-2.82l-2.79-2.968a7413.53 7413.53 0 00-2.676-2.843l-2.774-2.949-1.22-1.299-2.734-2.898c-.918-.974-1.838-1.947-2.754-2.924-.89-.948-1.776-1.9-2.666-2.849-.91-.969-1.823-1.936-2.734-2.905-.906-.96-1.81-1.924-2.714-2.886-.435-.46-.869-.92-1.303-1.382-.938-.996-1.878-1.992-2.813-2.99-.142-.152-.266-.319-.399-.478l-.003.002c.1.07.21.125.293.21 1.923 1.916 3.843 3.835 5.764 5.755l9.131 9.131 2.951 2.948a143726181.116 143726181.116 0 0016.771 16.777c.053.054.117.097.175.144l.058.058.113.112c.02.02.038.04.058.058l.113.113c.018.02.038.038.058.058l.112.113.057.057c.04.038.076.075.114.114.018.02.038.038.057.057l.114.112.014.014-.017-.01c-.038-.038-.075-.076-.114-.113l-.057-.058-.113-.113-.058-.057a6.02 6.02 0 00-.17-.17 11.986 11.986 0 01-.113-.114l-.058-.057-.113-.114a3.145 3.145 0 00-.058-.057c-.07-.108-.13-.228-.218-.32-.796-.844-1.6-1.68-2.397-2.523-.655-.693-1.3-1.395-1.953-2.089-.827-.879-1.659-1.754-2.489-2.632l-2.703-2.858-2.734-2.902-2.894-3.067c-.918-.974-1.835-1.949-2.754-2.922l-2.837-3.005-2.95-3.127c-.899-.955-1.797-1.91-2.698-2.865l-2.93-3.106c-.894-.946-1.789-1.893-2.68-2.842-.812-.866-1.62-1.736-2.428-2.606-.055-.059-.087-.14-.129-.21l-.003.002c.461.448.927.89 1.382 1.344 2.996 2.994 5.991 5.99 8.985 8.988.117.118.21.262.303.401.02.027-.008.085-.013.128-.033-.016-.068-.027-.097-.048-.054-.038-.104-.082-.154-.123l-.058-.058-.057-.057-.012-.016.014.013.058.057c.018.02.038.04.058.058.154.2.307.4.463.6.012.015.045.015.07.022-.009-.025-.01-.052-.025-.074-.052-.088-.113-.172-.16-.263-.014-.027-.005-.097.01-.102a.176.176 0 01.125.003c.058.03.11.075.155.121 2.794 2.798 5.586 5.596 8.381 8.393 5.523 5.525 11.047 11.048 16.571 16.572.207.207.415.413.627.615.045.043.11.065.165.096l.055.115.115.056.056.114a.46.46 0 00.017.011.154.154 0 01-.019-.008l-.056-.115a4.062 4.062 0 01-.115-.055 3.065 3.065 0 00-.057-.115l-1.164-1.23-2.916-3.086-2.895-3.066-1.383-1.463-3.074-3.249-2.818-2.983-2.992-3.168-2.817-2.982c-.99-1.049-1.98-2.099-2.97-3.146-.577-.609-1.16-1.21-1.733-1.82-1.033-1.099-2.058-2.206-3.093-3.304-1.28-1.359-2.569-2.712-3.856-4.068-.589-.62-1.183-1.239-1.77-1.863-.563-.597-1.12-1.2-1.678-1.803-.044-.047-.075-.106-.112-.16l.041-.04c.277.264.561.524.833.796 1.792 1.788 3.581 3.578 5.371 5.367 1.318 1.318 2.637 2.633 3.954 3.951 1.576 1.577 3.15 3.157 4.726 4.734 1.563 1.564 3.13 3.124 4.694 4.687l5.93 5.928c2.186 2.19 4.371 4.383 6.56 6.573a4102.32 4102.32 0 005.111 5.107c.046.046.105.077.16.115.008.02.017.038.026.057.001-.007.006-.016.003-.019-.01-.013-.022-.024-.033-.035-.096-.115-.186-.235-.288-.343-.773-.815-1.549-1.626-2.32-2.44-1.02-1.075-2.037-2.153-3.053-3.228l-1.326-1.4c-1.05-1.11-2.1-2.222-3.152-3.332-.479-.506-.965-1.007-1.442-1.515-.743-.79-1.48-1.587-2.226-2.376-.792-.836-1.592-1.665-2.384-2.5-1-1.054-1.997-2.113-2.996-3.169l-2.935-3.103c-1.012-1.069-2.022-2.139-3.034-3.207-.518-.545-1.042-1.084-1.558-1.63-.704-.75-1.399-1.509-2.105-2.257-.79-.837-1.592-1.665-2.385-2.5-.994-1.047-1.984-2.099-2.976-3.148L3.318 21.66a10.267 10.267 0 01-.339-.382c-.02-.025-.025-.066-.037-.099.028.015.062.024.083.046.417.413.834.825 1.248 1.24l10.395 10.391 8.527 8.527 9.761 9.768 9.248 9.25c.058.057.123.11.185.165-.05-.07-.092-.148-.15-.21a1778.055 1778.055 0 00-3.272-3.453c-.76-.8-1.527-1.598-2.287-2.399-.895-.945-1.786-1.894-2.68-2.839l-3.449-3.63c-1.007-1.06-2.012-2.123-3.018-3.185l-3.135-3.308-3.017-3.186c-1.038-1.095-2.078-2.19-3.114-3.288-.66-.699-1.325-1.393-1.964-2.109-.21-.234-.47-.425-.616-.723-.047-.098-.216-.132-.302-.22-.278-.282-.54-.579-.813-.865-.78-.82-1.564-1.638-2.345-2.46-1.066-1.12-2.13-2.244-3.194-3.368-.96-1.013-1.92-2.026-2.877-3.042-.84-.893-1.678-1.789-2.515-2.684-.039-.04-.069-.09-.103-.136l-.003.004c.104.075.221.138.31.228 1.863 1.855 3.722 3.711 5.581 5.57L15.86 31.7c.137.136.374.554.414.726l-.015.051a.523.523 0 01.012-.054c.016-.023.04-.044.046-.069.02-.088.041-.157.14-.059.046.047.095.092.141.14L38.33 54.167c1.458 1.46 2.915 2.918 4.376 4.374.084.083.195.14.294.207.006.11.063.164.171.171l.055.114c.02.02.038.04.058.058l.113.112a.127.127 0 00.02.013.497.497 0 01-.023-.009l-.113-.113a1.586 1.586 0 00-.058-.058l-.055-.114-.17-.17c-.319-.335-.638-.668-.954-1.004-.743-.79-1.482-1.586-2.229-2.373-.844-.889-1.696-1.77-2.54-2.658-1.113-1.168-2.222-2.34-3.333-3.51-.485-.512-.972-1.022-1.457-1.535-.797-.845-1.588-1.694-2.387-2.536-.798-.842-1.605-1.677-2.405-2.518-1.039-1.093-2.075-2.19-3.113-3.285-1.07-1.129-2.143-2.256-3.213-3.385l-3.096-3.265c-.492-.519-.987-1.034-1.477-1.554-.797-.845-1.588-1.694-2.387-2.536-.798-.843-1.604-1.677-2.404-2.519-1.04-1.093-2.075-2.19-3.115-3.285-1.07-1.129-2.143-2.255-3.21-3.386-.182-.19-.34-.402-.51-.603a.63.63 0 01.036-.038c.278.266.562.525.834.797 1.846 1.843 3.688 3.687 5.532 5.532 1.91 1.911 3.82 3.822 5.732 5.732 1.73 1.731 3.462 3.46 5.194 5.191 1.678 1.677 3.355 3.355 5.032 5.034l5.351 5.355c1.856 1.858 3.715 3.714 5.573 5.571l5.194 5.191c.427.426.853.852 1.281 1.276.052.052.117.092.176.137l.114.114.017.012-.02-.009-.114-.114c-.149-.169-.293-.342-.447-.506-1.03-1.09-2.06-2.18-3.096-3.267-.838-.88-1.688-1.752-2.527-2.633-1.074-1.126-2.142-2.258-3.213-3.388l-3.21-3.39-3.235-3.412c-.837-.883-1.673-1.768-2.512-2.65-.754-.794-1.513-1.585-2.267-2.379-1.014-1.066-2.026-2.133-3.039-3.2l-3.273-3.45a5018.031 5018.031 0 00-3.218-3.388l-3.273-3.447a10388.187 10388.187 0 01-6.293-6.633 28.41 28.41 0 01-.443-.477c-.02-.023-.024-.064-.036-.097.031.018.066.03.09.052.444.44.888.878 1.33 1.32 1.08 1.073 2.16 2.147 3.237 3.224 3.957 3.961 7.912 7.923 11.87 11.884 4.051 4.054 8.105 8.105 12.16 12.158l11.355 11.355c.562.562 1.125 1.122 1.69 1.682.022.023.052.04.08.06-.015-.034-.02-.074-.043-.098-.329-.337-.666-.666-.99-1.008-.915-.964-1.826-1.935-2.74-2.9-.748-.789-1.502-1.57-2.25-2.357-1.08-1.135-2.157-2.27-3.236-3.406a205910.441 205910.441 0 00-6.472-6.812l-3.274-3.447-3.198-3.365c-1.092-1.15-2.183-2.3-3.276-3.449l-3.217-3.387-3.256-3.429-3.059-3.224c-1.079-1.136-2.157-2.272-3.237-3.406-.592-.62-1.19-1.235-1.778-1.86-.193-.205-.359-.436-.538-.655.098.07.207.127.291.211 2.572 2.568 5.141 5.14 7.711 7.71l14.481 14.48c5.57 5.57 11.138 11.138 16.707 16.71.412.411.803.844 1.22 1.252.175.173.39.308.588.46l.056.115.115.056.056.114.018.013-.02-.01a3.065 3.065 0 00-.058-.115l-.114-.055a4.08 4.08 0 00-.056-.115l-.598-.639c-.269-.289-.533-.58-.806-.866-.443-.463-.895-.918-1.338-1.38-1.193-1.25-2.383-2.5-3.574-3.752-.487-.51-.975-1.02-1.46-1.534-.856-.905-1.707-1.814-2.564-2.717-.799-.842-1.606-1.677-2.407-2.518-1.092-1.147-2.182-2.297-3.273-3.445-1.066-1.122-2.134-2.242-3.2-3.363l-3.45-3.63-3.218-3.386c-1.09-1.149-2.183-2.297-3.274-3.446-1.066-1.12-2.13-2.242-3.197-3.364-1.092-1.149-2.18-2.299-3.274-3.447-1.066-1.12-2.136-2.239-3.199-3.364-.245-.259-.467-.538-.7-.809l.031-.032c.272.258.551.51.817.774 1.974 1.97 3.944 3.943 5.916 5.914l6.195 6.196c2.032 2.031 4.065 4.062 6.096 6.094 2.19 2.193 4.377 4.39 6.568 6.581 2.585 2.584 5.175 5.164 7.76 7.748 1.92 1.918 3.834 3.84 5.752 5.76.712.712 1.427 1.421 2.142 2.131.038.038.09.063.133.093l.058.058c.01.02.02.04.027.06.002-.007.008-.017.005-.02-.01-.014-.023-.025-.035-.037l-.057-.058c-.13-.148-.256-.3-.39-.445-.508-.544-1.013-1.09-1.526-1.628-.914-.955-1.835-1.9-2.749-2.856-1.127-1.179-2.25-2.364-3.376-3.546-.479-.504-.96-1.006-1.44-1.512-.785-.83-1.564-1.665-2.352-2.493-.903-.95-1.812-1.897-2.717-2.846-1.126-1.18-2.25-2.364-3.376-3.547-1-1.052-1.998-2.106-2.999-3.158-1.209-1.27-2.42-2.54-3.63-3.813l-3.179-3.343-3.312-3.487-3.357-3.525-3.295-3.468c-.999-1.052-2-2.105-2.996-3.16-.075-.079-.126-.182-.187-.273h.002c.377.356.76.706 1.13 1.072 1.165 1.161 2.323 2.33 3.488 3.49.273.271.574.515.845.788 1.858 1.87 3.705 3.751 5.565 5.617 3.437 3.447 6.882 6.887 10.323 10.33L40.636 44.85c2.8 2.801 5.602 5.6 8.403 8.4l1.862 1.862.017.013-.019-.01c-.036-.063-.06-.136-.11-.186-.352-.367-.714-.725-1.064-1.095-.803-.849-1.599-1.707-2.405-2.555-.878-.923-1.764-1.838-2.642-2.759-1.133-1.188-2.262-2.379-3.394-3.568l-3.338-3.505-3.313-3.487c-1.119-1.176-2.239-2.35-3.357-3.526l-3.294-3.466c-1.059-1.115-2.12-2.228-3.179-3.342l-3.452-3.63c-1.072-1.128-2.143-2.256-3.216-3.383-.592-.62-1.187-1.238-1.78-1.856-.45-.47-.9-.942-1.353-1.41-.176-.184-.359-.36-.533-.545-.063-.067-.11-.149-.165-.224-.033-.046-.054-.112-.098-.137-.305-.172-.466-.483-.705-.717-.237-.23-.457-.476-.685-.714-.352-.37-.707-.737-1.057-1.108-.803-.85-1.606-1.7-2.406-2.553-.07-.074-.124-.164-.185-.246l-.003.003z"/><path d="M61.98 47.615l-.174-.165a.319.319 0 01.026-.026c.053.06.11.117.164.175l-.016.016zM40.835 42.775c.047.03.098.054.14.09.015.012.011.048.016.073a3.21 3.21 0 01-.098.004l.003.004a3.538 3.538 0 01-.062-.06l.004.004v-.117l-.003.002zM7.231 13.834l.178.164-.012.011-.164-.177-.002.002zM7.728 14.363l-.165-.177.02-.023c.06.056.117.112.175.168l-.03.032M61.495 47.074l.167.176-.03.03-.173-.168.036-.038"/><path d="M7.233 13.832c-.1-.013-.157-.07-.17-.171l-.003.003c.101.012.158.069.171.169l.002-.001zM64.203 42.834l-.179-.162a.447.447 0 01.022-.021l.162.178-.005.005zM59.602 52.21c-.101-.011-.158-.067-.172-.168h-.001c.102.014.157.072.17.172l.003-.003z"/><path d="M64.024 42.672l-.175-.166.03-.03.166.175-.02.02M7.563 14.186l-.165-.177.012-.012.173.167-.02.022M4.68 18.261l.177.164c-.008.01-.017.017-.026.025a13.565 13.565 0 00-.164-.175l.014-.014zM59.43 52.042l-.177-.164.013-.013.163.178v-.001zM61.662 47.25c.057.057.112.117.17.175a.204.204 0 00-.026.026l-.175-.17.031-.032"/><path d="M4.856 18.425l.172.168-.029.03-.168-.173.025-.025M59.1 51.69c.057.058.11.117.166.175l-.013.013c-.058-.055-.117-.11-.174-.166a.228.228 0 01.022-.022M5.028 18.594l.175.17a.417.417 0 00-.036.037A13.685 13.685 0 015 18.624a.807.807 0 01.03-.03M63.85 42.506a27.577 27.577 0 01-.172-.168c.01-.012.024-.024.035-.036l.167.174-.03.03"/><path d="M63.678 42.338l-.175-.172.04-.04.17.176-.035.036M2.616 23.225l-.16-.18.002-.003.18.16a.213.213 0 01-.022.023"/><path d="M2.638 23.203l.175.167-.03.029-.166-.174.02-.022M59.078 51.712l-.175-.168c.011-.01.022-.02.031-.033l.166.18-.022.021M1.432 40.615l.18.16-.021.023-.156-.186-.003.003z"/><path d="M2.813 23.37l.171.167-.034.035c-.057-.057-.113-.116-.167-.173l.03-.03"/><path d="M2.984 23.537c.06.057.116.114.175.171l-.04.041-.17-.177c.012-.01.023-.023.035-.035M61.996 47.6l.163.178-.179-.163.016-.016zM65.23 25.26l-.181-.16.023-.024c.052.062.105.124.156.187l.002-.002zM65.58 37.193l.16.18.002-.002c-.104-.002-.159-.062-.183-.158l.02-.02zM1.251 28.854l-.161-.18.004-.003.182.157a.204.204 0 01-.025.026"/><path d="M65.56 37.213a26.503 26.503 0 01-.175-.165l.03-.03.165.175-.02.02zM1.276 28.828l.174.167-.033.034-.166-.175a.626.626 0 00.025-.026"/><path d="M1.585 29.201l-.168-.173c.012-.01.022-.022.033-.034l.173.168-.038.04"/><path d="M1.753 29.373c-.057-.056-.112-.114-.168-.172l.038-.038.17.17-.04.04zM65.385 37.049l-.174-.167.036-.037.168.173-.03.03"/><path d="M1.794 29.332l.175.174-.046.044-.17-.177.04-.04zM65.21 36.881l-.171-.169a1.38 1.38 0 00.038-.039l.17.172-.036.036"/><path d="M65.04 36.712l-.172-.169a.832.832 0 01.042-.042l.167.172-.038.04"/><path d="M64.868 36.543l-.175-.173.047-.046.17.177-.042.042M4.503 18.098l.178.163-.014.014-.163-.178-.001.001zM66.083 33.106l-.171-.169-.001.001c.11.004.159.068.169.171l.003-.003zM.58 32.769l.17.17.002-.003c-.11-.004-.158-.07-.17-.17l-.003.003zM62.331 47.946c-.1-.012-.16-.065-.173-.168h.001l.17.171.002-.003zM1.09 28.674l-.167-.172-.004.003c.107.005.164.06.175.166l-.004.003zM64.378 43c-.104-.008-.161-.063-.175-.166l.005-.006.167.174.003-.003z"/><path d="M4.504 18.097a27.09 27.09 0 01-.17-.171l-.003.003c.102.012.159.068.172.169v-.001zM2.455 23.045l-.168-.173-.003.003c.102.01.163.062.174.167l-.003.003zM65.74 37.373c.03.022.062.038.088.064.017.018.024.046.036.069-.03-.01-.07-.013-.087-.034-.02-.025-.024-.066-.035-.1l-.002.002zM58.633 53.58l.112.112.003-.003-.112-.112-.003.002zM58.578 53.519l-.115-.112.112.115.003-.003zM6.21 15.14l-.113-.114-.003.003.114.112.002-.001zM8.084 12.356l.115.112a11.935 11.935 0 00-.112-.114l-.003.002zM60.623 50.907l.112.112.003-.002-.113-.113-.002.003zM60.567 50.847l-.114-.112.111.115.003-.003zM7.914 12.185l.112.114.003-.003a11.986 11.986 0 00-.113-.112l-.002.002zM62.328 47.95l.04.03-.026.017-.01-.05-.004.002zM64.432 43.118l.113.055.003-.002c-.038-.02-.076-.037-.113-.055l-.003.002zM64.375 43.002c.019.04.037.077.057.115l.003-.002c-.019-.039-.039-.077-.057-.116l-.003.003zM57.553 54.83c.01.012.022.022.03.035.003.004-.001.012-.003.018l-.025-.055-.002.002zM1.435 40.612l-.051-.011.017-.026.03.04.004-.003zM.923 28.502c-.012-.011-.024-.022-.034-.035-.003-.003.003-.012.005-.019l.025.057.004-.003zM1.262 26.457l.056.114.003-.002-.057-.114-.002.002zM65.228 25.263a.928.928 0 01.052.01l-.019.029-.031-.041-.002.002z"/><path d="M2.287 22.873l-.037-.032.024-.014.01.049.003-.003zM64.375 22.078c.011.012.023.023.033.036.002.004-.003.013-.005.02l-.025-.059-.003.003zM16.16 16.164l-.056-.114-.003.002.056.114zM6.04 14.968c-.012-.013-.024-.024-.034-.038-.002-.004.004-.013.005-.019l.025.06.003-.003zM9.168 11.102l-.018-.008.015.011.003-.003zM7.916 12.183l-.015-.013.013.015zM8.087 12.354a1.586 1.586 0 00-.058-.058l-.003.003c.02.019.04.037.058.056l.003-.002zM8.2 12.468c.018.02.037.037.057.056l-.002.001-.056-.057zM6.893 13.49l-.013-.01.01.013zM6.89 13.493l.017.014-.014-.017zM7.064 13.66c-.008-.002-.014-.006-.021-.01.005.006.011.01.018.014l.003-.003z"/><path d="M6.036 14.971c.02.02.04.038.058.058l.003-.003-.058-.058-.003.003zM6.266 15.197c-.02-.019-.037-.038-.056-.058l-.002.002.058.056M15.933 15.878l-.013-.01.01.012z"/><path d="M15.93 15.88l.013.01-.01-.012zM16.105 16.05l-.017-.013.014.014zM4.335 17.925l-.021-.01a.192.192 0 00.017.013l.004-.003zM3.538 19.46l-.022-.012.02.015.002-.003zM1.605 24.464l-.018-.008.016.011.002-.003zM1.264 26.455l-.015-.011.013.013zM65.74 28.106l.022.009a.352.352 0 00-.02-.012l-.003.003zM.639 30.549l-.016-.016.013.018zM.582 32.766l-.02-.01.017.013.003-.003zM66.08 33.11l.021.008-.018-.012zM66.08 35.44l.024.01a.143.143 0 00-.02-.012l-.004.003zM.923 37.769L.9 37.76c.006.004.013.009.02.012l.003-.003zM65.398 39.42l.016.012-.014-.014zM65.057 41.411l.022.008a.086.086 0 00-.02-.01l-.002.002zM42.658 42.546l-.015-.011.012.014zM64.545 43.173l.013.01-.01-.012zM63.124 46.415l.022.012-.019-.015-.003.003zM3.993 47.834l-.018-.014.015.017zM62.501 48.117l-.015-.01.012.012zM62.498 48.12l.012.009-.009-.011zM60.395 50.678l.058.057-.056-.057h-.002zM60.565 50.85a3.2 3.2 0 01.059.058l.002-.003-.058-.058-.003.003zM60.735 51.02l.016.013-.013-.016zM59.599 52.214l.022.011a.094.094 0 00-.02-.014l-.002.003zM59.772 52.382l-.017-.014.014.016zM59.769 52.384l.017.014-.014-.016zM58.463 53.407l-.058-.056.002-.002.056.058M58.636 53.577l-.058-.058-.003.003.058.057.003-.002zM58.745 53.692l.015.012-.012-.015zM57.555 54.828a1.586 1.586 0 00-.058-.058l-.003.003.059.057.002-.002z"/></g></svg>